<svg width="30" height="30" viewBox="0 0 30 30" fill="none" xmlns="http://www.w3.org/2000/svg">
<mask id="mask0_42_7" style="mask-type:alpha" maskUnits="userSpaceOnUse" x="0" y="0" width="30" height="30">
<rect width="30" height="30" fill="#D9D9D9"/>
</mask>
<g mask="url(#mask0_42_7)">
<path d="M9.70831 13.6875C10.0625 13.6875 10.3594 13.5677 10.5989 13.3281C10.8385 13.0885 10.9583 12.7917 10.9583 12.4375C10.9583 12.0833 10.8385 11.7865 10.5989 11.5469C10.3594 11.3073 10.0625 11.1875 9.70831 11.1875C9.35415 11.1875 9.05727 11.3073 8.81769 11.5469C8.5781 11.7865 8.45831 12.0833 8.45831 12.4375C8.45831 12.7917 8.5781 13.0885 8.81769 13.3281C9.05727 13.5677 9.35415 13.6875 9.70831 13.6875ZM15.0625 13.6875C15.4167 13.6875 15.7135 13.5677 15.9531 13.3281C16.1927 13.0885 16.3125 12.7917 16.3125 12.4375C16.3125 12.0833 16.1927 11.7865 15.9531 11.5469C15.7135 11.3073 15.4167 11.1875 15.0625 11.1875C14.7083 11.1875 14.4115 11.3073 14.1719 11.5469C13.9323 11.7865 13.8125 12.0833 13.8125 12.4375C13.8125 12.7917 13.9323 13.0885 14.1719 13.3281C14.4115 13.5677 14.7083 13.6875 15.0625 13.6875ZM20.2708 13.6875C20.625 13.6875 20.9219 13.5677 21.1615 13.3281C21.4011 13.0885 21.5208 12.7917 21.5208 12.4375C21.5208 12.0833 21.4011 11.7865 21.1615 11.5469C20.9219 11.3073 20.625 11.1875 20.2708 11.1875C19.9167 11.1875 19.6198 11.3073 19.3802 11.5469C19.1406 11.7865 19.0208 12.0833 19.0208 12.4375C19.0208 12.7917 19.1406 13.0885 19.3802 13.3281C19.6198 13.5677 19.9167 13.6875 20.2708 13.6875ZM2.5 27.5V4.58331C2.5 4.02081 2.70659 3.53297 3.11978 3.11978C3.53297 2.70659 4.02081 2.5 4.58331 2.5H25.4167C25.9792 2.5 26.467 2.70659 26.8802 3.11978C27.2934 3.53297 27.5 4.02081 27.5 4.58331V20.4167C27.5 20.9792 27.2934 21.467 26.8802 21.8802C26.467 22.2934 25.9792 22.5 25.4167 22.5H7.5L2.5 27.5ZM6.60416 20.4167H25.4167V4.58331H4.58331V22.5521L6.60416 20.4167Z" fill="white"/>
</g>
</svg>
