<svg width="102" height="102" viewBox="0 0 102 102" fill="none" xmlns="http://www.w3.org/2000/svg">
<mask id="mask0_14_14" style="mask-type:alpha" maskUnits="userSpaceOnUse" x="0" y="0" width="102" height="102">
<rect width="102" height="102" fill="#D9D9D9"/>
</mask>
<g mask="url(#mask0_14_14)">
<path d="M83.3 89.25L56.525 62.475C54.4 64.175 51.9562 65.5208 49.1937 66.5125C46.4312 67.5042 43.4917 68 40.375 68C32.6542 68 26.1198 65.326 20.7719 59.9781C15.424 54.6302 12.75 48.0958 12.75 40.375C12.75 32.6542 15.424 26.1198 20.7719 20.7719C26.1198 15.424 32.6542 12.75 40.375 12.75C48.0958 12.75 54.6302 15.424 59.9781 20.7719C65.326 26.1198 68 32.6542 68 40.375C68 43.4917 67.5042 46.4312 66.5125 49.1937C65.5208 51.9562 64.175 54.4 62.475 56.525L89.25 83.3L83.3 89.25ZM40.375 59.5C45.6875 59.5 50.2031 57.6406 53.9219 53.9219C57.6406 50.2031 59.5 45.6875 59.5 40.375C59.5 35.0625 57.6406 30.5469 53.9219 26.8281C50.2031 23.1094 45.6875 21.25 40.375 21.25C35.0625 21.25 30.5469 23.1094 26.8281 26.8281C23.1094 30.5469 21.25 35.0625 21.25 40.375C21.25 45.6875 23.1094 50.2031 26.8281 53.9219C30.5469 57.6406 35.0625 59.5 40.375 59.5Z" fill="#FEFDFF"/>
</g>
</svg>
