<svg width="141" height="134" viewBox="0 0 141 134" fill="none" xmlns="http://www.w3.org/2000/svg">
<mask id="mask0_6_243" style="mask-type:alpha" maskUnits="userSpaceOnUse" x="0" y="0" width="141" height="134">
<rect width="141" height="134" fill="#D9D9D9"/>
</mask>
<g mask="url(#mask0_6_243)">
<path d="M31.725 97.8479C37.9917 94.0326 44.2361 91.1712 50.4582 89.2635C56.6804 87.3559 63.3632 86.4021 70.5066 86.4021C77.6501 86.4021 84.3307 87.3559 90.5484 89.2635C96.7661 91.1712 103.106 94.0326 109.569 97.8479C113.779 92.6368 116.717 87.5653 118.381 82.6333C120.046 77.7014 120.878 72.4903 120.878 67C120.878 53.4139 116.056 42.0378 106.411 32.8719C96.7661 23.7059 84.7958 19.1229 70.5 19.1229C56.2042 19.1229 44.2339 23.7059 34.5891 32.8719C24.9443 42.0378 20.1219 53.4139 20.1219 67C20.1219 72.4903 20.9786 77.7014 22.6922 82.6333C24.4057 87.5653 27.4167 92.6368 31.725 97.8479ZM70.4786 72.8625C64.3241 72.8625 59.1417 70.855 54.9313 66.84C50.7208 62.8251 48.6156 57.8932 48.6156 52.0442C48.6156 46.1953 50.728 41.2701 54.9527 37.2687C59.1773 33.2673 64.3669 31.2667 70.5215 31.2667C76.6759 31.2667 81.8583 33.2741 86.0688 37.2891C90.2792 41.304 92.3844 46.2359 92.3844 52.085C92.3844 57.9339 90.272 62.859 86.0473 66.8604C81.8227 70.8618 76.6331 72.8625 70.4786 72.8625ZM70.4169 125.067C62.0954 125.067 54.1996 123.532 46.7295 120.464C39.2594 117.396 32.7615 113.208 27.2356 107.902C21.7098 102.595 17.3557 96.4362 14.1734 89.4253C10.9911 82.4145 9.4 74.9161 9.4 66.9302C9.4 58.9443 11.0259 51.44 14.2777 44.4175C17.5296 37.3949 21.9342 31.2496 27.4913 25.9816C33.0485 20.7136 39.5174 16.5553 46.8979 13.5065C54.2785 10.4577 62.1703 8.93332 70.5734 8.93332C78.9766 8.93332 86.867 10.4799 94.2447 13.5731C101.622 16.6662 108.067 20.8342 113.578 26.0769C119.089 31.3197 123.471 37.4539 126.723 44.4795C129.974 51.5051 131.6 58.9995 131.6 66.9629C131.6 74.9409 129.996 82.4335 126.788 89.4407C123.58 96.4479 119.201 102.592 113.651 107.873C108.101 113.155 101.617 117.341 94.1978 120.431C86.779 123.521 78.852 125.067 70.4169 125.067Z" fill="white"/>
</g>
</svg>
